<mxfile host="app.diagrams.net" agent="Mozilla/5.0 (Windows NT 10.0; Win64; x64) AppleWebKit/537.36 (KHTML, like Gecko) Chrome/128.0.0.0 Safari/537.36" version="24.7.14">
  <diagram name="Page-1" id="vwVvwB6MJw4mS80bpFUi">
    <mxGraphModel dx="1050" dy="583" grid="1" gridSize="10" guides="1" tooltips="1" connect="1" arrows="1" fold="1" page="1" pageScale="1" pageWidth="850" pageHeight="1100" math="0" shadow="0">
      <root>
        <mxCell id="0" />
        <mxCell id="1" parent="0" />
        <mxCell id="cluTuejxcoWKLTqfI6Yy-1" value="" style="rounded=0;whiteSpace=wrap;html=1;fillColor=#d5e8d4;strokeColor=#82b366;" vertex="1" parent="1">
          <mxGeometry x="440" y="120" width="170" height="100" as="geometry" />
        </mxCell>
        <mxCell id="cluTuejxcoWKLTqfI6Yy-2" value="&lt;b&gt;terraform-aws-vpc&lt;/b&gt;" style="text;html=1;align=center;verticalAlign=middle;resizable=0;points=[];autosize=1;strokeColor=none;fillColor=none;" vertex="1" parent="1">
          <mxGeometry x="460" y="120" width="130" height="30" as="geometry" />
        </mxCell>
        <mxCell id="cluTuejxcoWKLTqfI6Yy-3" value="" style="image;aspect=fixed;html=1;points=[];align=center;fontSize=12;image=img/lib/azure2/general/Code.svg;" vertex="1" parent="1">
          <mxGeometry x="493" y="160" width="64" height="52" as="geometry" />
        </mxCell>
        <mxCell id="cluTuejxcoWKLTqfI6Yy-7" style="edgeStyle=orthogonalEdgeStyle;rounded=0;orthogonalLoop=1;jettySize=auto;html=1;entryX=0;entryY=0.5;entryDx=0;entryDy=0;" edge="1" parent="1" source="cluTuejxcoWKLTqfI6Yy-4" target="cluTuejxcoWKLTqfI6Yy-1">
          <mxGeometry relative="1" as="geometry" />
        </mxCell>
        <mxCell id="cluTuejxcoWKLTqfI6Yy-4" value="" style="rounded=0;whiteSpace=wrap;html=1;fillColor=#dae8fc;strokeColor=#6c8ebf;" vertex="1" parent="1">
          <mxGeometry x="80" y="120" width="150" height="100" as="geometry" />
        </mxCell>
        <mxCell id="cluTuejxcoWKLTqfI6Yy-5" value="&lt;b&gt;vpc-test&lt;/b&gt;" style="text;html=1;align=center;verticalAlign=middle;resizable=0;points=[];autosize=1;strokeColor=none;fillColor=none;" vertex="1" parent="1">
          <mxGeometry x="120" y="120" width="70" height="30" as="geometry" />
        </mxCell>
        <mxCell id="cluTuejxcoWKLTqfI6Yy-6" value="&lt;b&gt;provider&lt;/b&gt;" style="text;html=1;align=center;verticalAlign=middle;resizable=0;points=[];autosize=1;strokeColor=none;fillColor=none;" vertex="1" parent="1">
          <mxGeometry x="120" y="150" width="70" height="30" as="geometry" />
        </mxCell>
        <mxCell id="cluTuejxcoWKLTqfI6Yy-8" value="&lt;b&gt;values as per &lt;br&gt;module variables&lt;/b&gt;" style="text;html=1;align=center;verticalAlign=middle;resizable=0;points=[];autosize=1;strokeColor=none;fillColor=none;" vertex="1" parent="1">
          <mxGeometry x="280" y="115" width="120" height="40" as="geometry" />
        </mxCell>
      </root>
    </mxGraphModel>
  </diagram>
</mxfile>
